<svg class="icon" viewBox="0 0 1024 1024" version="1.1" xmlns="http://www.w3.org/2000/svg" width="200" height="200"><path d="M211.693173 1023.793001a30.875879 30.875879 0 0 1-10.359959-1.827993 30.063883 30.063883 0 0 1-20.312921-25.797899l-8.124968-77.596697a52.407795 52.407795 0 0 0-46.922817-46.516818l-77.799696-7.71897a30.875879 30.875879 0 0 1-18.890926-51.594799l184.443279-185.865274 21.531916 21.531916L51.016801 833.052746l77.799696 8.327967a83.080675 83.080675 0 0 1 74.345709 73.939712l8.124969 77.596696L440.42028 762.97202l21.531915 21.531916-228.522107 230.148101a29.859883 29.859883 0 0 1-21.735915 9.139964z m592.533685 0.202999a31.079879 31.079879 0 0 1-22.749911-10.15696L563.3138 773.941977l22.547911-20.313921 218.162148 239.695064 12.187953-77.392698a83.283675 83.283675 0 0 1 77.596697-70.486725l78.001695-4.062984L795.898891 646.984473l22.547912-20.312921 176.927309 193.380245a30.875879 30.875879 0 0 1-20.313921 51.595798l-78.001695 4.265983a52.610794 52.610794 0 0 0-48.75181 44.485827l-11.577954 77.189698a30.67288 30.67288 0 0 1-24.172906 24.984903 28.641888 28.641888 0 0 1-8.328968 1.421994z"></path><path d="M516.186984 788.972918A394.480459 394.480459 0 1 1 910.668443 394.695458a394.887457 394.887457 0 0 1-394.481459 394.27846z m0-758.288038A364.011578 364.011578 0 1 0 880.198562 394.695458 364.214577 364.214577 0 0 0 516.186984 30.68488z"></path><path d="M516.186984 606.154632a211.663173 211.663173 0 1 1 211.663173-211.459174 211.663173 211.663173 0 0 1-211.663173 211.459174z m0-392.652466a181.193292 181.193292 0 1 0 181.193292 181.193292 181.396291 181.396291 0 0 0-181.193292-181.193292z"></path></svg>
