<svg class="icon" viewBox="0 0 1024 1024" version="1.1" xmlns="http://www.w3.org/2000/svg" width="200" height="200"><path d="M888.921685 318.236066c-0.523807-40.404163-1.141537-84.523139-1.236665-132.95178-0.048166-14.643709-9.595898-27.548621-23.548424-31.714992-112.833989-33.642842-350.930034-68.286335-352.644749-68.238168-68.047912 3.475187-301.787331 52.738306-352.525537 68.28513-13.857397 4.239824-23.334084 17.143532-23.334085 31.737871 0 43.57229-0.427474 83.739235-0.856153 120.906633-3.523353 319.169285-4.809389 438.597218 310.049027 611.622018 26.166253 14.358325 47.237733 20.786096 68.381463 20.786096 21.023314 0 41.975583-6.261598 67.975663-20.238206 313.691591-168.976437 312.312835-268.954884 307.73946-600.194602zM463.42084 276.56995c0-16.095918 21.737377-29.167003 48.594814-29.167003 26.810475 0 48.571935 13.071085 48.571935 29.167003v314.81025c0 16.120001-21.76146 29.168208-48.571935 29.168207-26.857437 0-48.594814-13.048206-48.594814-29.168207V276.56995z m48.594814 489.478719c-26.833354 0-48.594814-21.928837-48.594814-49.000613 0-27.046489 21.76146-48.998206 48.594814-48.998206s48.571935 21.951716 48.571935 48.998206c0 27.071776-21.76146 49.000614-48.571935 49.000613z"></path></svg>
