<svg class="icon" viewBox="0 0 1024 1024" version="1.1" xmlns="http://www.w3.org/2000/svg" width="128" height="128"><path d="M975.008 392.8c-48.8-63.232-143.2-58.4-250.4-56 2.4-25.632 4.8-51.232 6.4-76 20-124.8-6.4-225.632-108-244-24.8-4.8-57.6-1.632-76 6.368-50.4 20.8-66.4 69.632-76 131.232-6.4 36.768 4.8 78.4-3.2 111.2-10.4 41.6-42.4 72-74.4 91.232-39.2 23.2-89.6 37.6-142.4 46.368-84 14.4-200-28.768-228.8 40-12.8 30.4-4.8 88.8-4.8 128v296.8c0 56-4 104 28 128 32 23.2 175.2 12 232 12V456c108-7.2 220-84.8 244.768-176 19.232-68.8-15.2-176.8 44.8-204 126.4-56.8 118.4 131.2 104.8 216.8-3.232 32.768-6.4 66.368-9.632 99.2v4.8c88.8-3.232 225.632-27.232 270.4 31.2 24.8 32.8 25.6 96.8 12 142.4-25.6 88-115.2 308-174.4 354.4-35.2 28-60.768 9.6-114.368 18.368l-292 4.8v56l394.4-4.8c26.4-8 60.8-39.2 76-60 24.8-32.768 38.4-72.768 60-109.6a1088.64 1088.64 0 0 0 104.8-247.2c17.632-65.568 10.432-144.768-23.968-189.568z m-754.4 556.8h-140.8c-16-26.4-6.4-94.4-6.4-132.768 0-117.632 0.8-235.232 1.6-352.8 22.4-12.8 111.2-5.6 145.6-4.8v490.368z"></path></svg>
