<svg class="icon" viewBox="0 0 1024 1024" version="1.1" xmlns="http://www.w3.org/2000/svg" width="128" height="128"><path d="M960.512 64H54.613333C24.576 64 0 88.576 0 118.613333v250.538667c0 30.037333 24.576 54.613333 54.613333 54.613333h71.68V288.597333h-4.096c-24.576 0-44.373333-19.797333-44.373333-44.373333 0-24.576 19.797333-44.373333 44.373333-44.373333h770.730667c24.576 0 44.373333 19.797333 44.373333 44.373333 0 24.576-19.797333 44.373333-44.373333 44.373333h-4.096v135.168h71.68c29.354667 0 53.930667-24.576 54.613333-54.613333V118.613333c0-30.037333-24.576-54.613333-54.613333-54.613333z"></path><path d="M815.104 244.224H200.021333a36.693333 36.693333 0 0 0-36.864 36.864v679.936c0 10.24 13.653333 19.114667 23.893334 13.653333 9.557333-5.461333 140.629333-84.650667 140.629333-84.650666a29.568 29.568 0 0 1 30.037333 0l132.437334 82.602666s5.461333 2.730667 17.066666 2.730667 16.384-2.730667 16.384-2.730667l139.264-83.968a29.568 29.568 0 0 1 30.037334 0s129.024 79.189333 137.216 84.650667c8.874667 5.461333 21.845333-1.365333 21.845333-12.288V279.722667c0-19.114667-16.384-35.498667-36.864-35.498667z m-100.352 401.408H300.373333a34.986667 34.986667 0 0 1-34.816-34.816 34.986667 34.986667 0 0 1 34.816-34.816h414.378667a34.986667 34.986667 0 0 1 34.816 34.816 34.986667 34.986667 0 0 1-34.816 34.816z m0-157.696H300.373333a34.986667 34.986667 0 0 1-34.816-34.816 34.986667 34.986667 0 0 1 34.816-34.816h414.378667a34.986667 34.986667 0 0 1 34.816 34.816 34.986667 34.986667 0 0 1-34.816 34.816z"></path></svg>
