<svg class="icon" viewBox="0 0 1141 1024" version="1.1" xmlns="http://www.w3.org/2000/svg" width="128" height="128"><path d="M1038.823646 424.511113l-94.177255-239.723922a126.996602 126.996602 0 0 0-127.710066-84.902223H684.23201S642.137631 0 619.306781 0H523.702598C499.44482 0 458.777369 100.598432 458.777369 100.598432H324.646126a126.996602 126.996602 0 0 0-127.710066 84.188759L102.758805 424.511113A130.563922 130.563922 0 0 0 0.01998 554.361572V856.156867h105.592681v78.481047c0 119.861961 142.692811 118.435033 142.692811 0V856.156867h642.117651v78.481047c0 118.435033 142.692811 119.861961 142.692811 0V856.156867H1141.56247V554.361572a130.563922 130.563922 0 0 0-102.738824-129.850459zM229.755407 674.223533a82.761831 82.761831 0 1 1 80.621438-82.76183 82.048366 82.048366 0 0 1-80.621438 82.76183zM199.789916 418.803401l71.346406-185.500655c8.561569-26.39817 22.117386-45.6617 52.79634-45.661699h494.430591c30.678954 0 44.234771 19.26353 52.79634 45.661699l71.346406 185.500655z m713.464056 255.420132a82.761831 82.761831 0 1 1 80.621439-82.76183 82.048366 82.048366 0 0 1-82.048367 82.76183z"></path></svg>
