<svg class="icon" viewBox="0 0 1024 1024" version="1.1" xmlns="http://www.w3.org/2000/svg" width="200" height="200"><path d="M219 835h586c17.5 0 31.8-14.2 31.8-31.8 0-17.5-14.3-31.8-31.8-31.8H219c-17.5 0-31.8 14.2-31.8 31.8 0 17.5 14.3 31.8 31.8 31.8z"></path><path d="M1022.2 620.7L898.9 102.8C891.8 72.9 865.4 52 834.6 52h-646c-30.8 0-57.2 20.9-64.4 50.8L1.8 620.7c-1.2 5-1.8 10.1-1.8 15.2V906c0 36.4 29.7 66 66.1 66h891.8c36.4 0 66.1-29.6 66.1-66V635.9c0-5.1-0.6-10.2-1.8-15.2zM543.8 115.5h292.8l123.5 518.9H540.9l1.1-3.7c0.9-2.9 1.7-5.7 1.7-8.6v-93c0-4.1-1.2-7.9-2.2-10.8l-1.1-3 3.2-0.3c56.6-5.1 108.5-23.9 146.2-52.8 18.9-14.5 33.6-31.1 43.8-49.3 10.6-18.9 15.9-39.1 15.9-60.1 0-41.2-20.4-78.9-58.9-108.8-37.1-28.8-88.5-47.7-144.6-53.2l-2.3-0.2v-75.1zM635.4 283c32.1 19 50.6 44.5 50.6 69.8 0 25.3-18.4 50.8-50.6 69.8-33.2 19.7-77 30.5-123.4 30.5s-90.2-10.8-123.4-30.5c-32.1-19-50.6-44.5-50.6-69.8s18.4-50.8 50.6-69.8c33.2-19.7 77-30.5 123.4-30.5 46.4 0.1 90.2 10.9 123.4 30.5zM186.7 115.5h293.5v75.1l-2.3 0.2c-56.1 5.4-107.4 24.3-144.6 53.2-38.6 29.9-58.9 67.6-58.9 108.8 0 21 5.4 41.2 15.9 60.1 10.2 18.2 24.9 34.8 43.8 49.3 37.6 28.9 89.6 47.7 146.2 52.8l3.3 0.3-1.2 3.1c-1.3 3.5-2.1 7.1-2.2 10.7v93c0 2.9 0.8 5.7 1.7 8.6l1.1 3.7H63.9l122.8-518.9z m773.7 793H63.6V697.9h896.8v210.6z"></path></svg>
